HIERARCHY
ROOT Hips
{
  OFFSET -201.881 91.7065 -475.524
  CHANNELS 6 Xposition Yposition Zposition Zrotation Xrotation Yrotation
  JOINT RightUpLeg
  {
    OFFSET -8.9458 -8.66707 0.101652
    CHANNELS 3 Zrotation Xrotation Yrotation
    JOINT RightLeg
    {
      OFFSET 0 -44.4227 1.3727
      CHANNELS 3 Zrotation Xrotation Yrotation
      JOINT RightFoot
      {
        OFFSET 0.253549 -42.0924 -1.46059
        CHANNELS 3 Zrotation Xrotation Yrotation
        JOINT RightToes
        {
          OFFSET 0.04 -4.41509 8.4991
          CHANNELS 3 Zrotation Xrotation Yrotation
          End Site
          {
            OFFSET -0.08 -0.137448 9.77979
          }
        }
      }
    }
  }
  JOINT Spine
  {
    OFFSET 0 11.8905 0
    CHANNELS 3 Zrotation Xrotation Yrotation
    JOINT Spine1
    {
      OFFSET 0 25.6574 0.127663
      CHANNELS 3 Zrotation Xrotation Yrotation
      JOINT HEad
      {
        OFFSET 0 8.73416 0.011341
        CHANNELS 3 Zrotation Xrotation Yrotation
        End Site
        {
          OFFSET -0.29 12.7742 2.51395
        }
      }
      JOINT LeftShoulder1
      {
        OFFSET 8.99 -0.362252 -0.22
        CHANNELS 3 Zrotation Xrotation Yrotation
        JOINT LeftArm
        {
          OFFSET 10.2827 -0.00338 0.322123
          CHANNELS 3 Zrotation Xrotation Yrotation
          JOINT LeftForeArm
          {
            OFFSET 32.7669 0.099144 -1.42434
            CHANNELS 3 Zrotation Xrotation Yrotation
            JOINT LeftHand
            {
              OFFSET 27.5643 0.085362 1.02216
              CHANNELS 3 Zrotation Xrotation Yrotation
              End Site
              {
                OFFSET 16.7443 -0.6 1.50291
              }
            }
          }
        }
      }
      JOINT RightShoulder
      {
        OFFSET -8.99 -0.362252 -0.22
        CHANNELS 3 Zrotation Xrotation Yrotation
        JOINT RightArm
        {
          OFFSET -10.2827 -0.00338 0.322123
          CHANNELS 3 Zrotation Xrotation Yrotation
          JOINT RightForeArm
          {
            OFFSET -32.8971 0.099144 -1.42434
            CHANNELS 3 Zrotation Xrotation Yrotation
            JOINT RightHand
            {
              OFFSET -27.4921 0.085362 1.02216
              CHANNELS 3 Zrotation Xrotation Yrotation
              End Site
              {
                OFFSET -16.6312 -0.6 1.50291
              }
            }
          }
        }
      }
    }
  }
  JOINT LeftUpLeg
  {
    OFFSET 8.9458 -8.66707 0.101652
    CHANNELS 3 Zrotation Xrotation Yrotation
    JOINT LeftLeg
    {
      OFFSET 0 -44.4227 1.3727
      CHANNELS 3 Zrotation Xrotation Yrotation
      JOINT LeftFoot
      {
        OFFSET -0.253549 -42.0924 -1.46059
        CHANNELS 3 Zrotation Xrotation Yrotation
        JOINT LeftToes
        {
          OFFSET -0.04 -4.41509 8.4991
          CHANNELS 3 Zrotation Xrotation Yrotation
          End Site
          {
            OFFSET 0.08 -0.047448 9.77979
          }
        }
      }
    }
  }
}
MOTION
Frames:	19
Frame Time:	0.0166667
-182.401 96.6685 -504.369 -5.06724 -19.1893 13.1767 6.5547 -4.5099 5.66935 -8.95861 34.2373 -3.68824 -25.9951 -1.67341 -1.23105 0.0462048 0.000533403 0.662642 18.7718 16.0815 -1.88408 0.0219771 0.048499 -0.097186 26.0731 40.7815 22.9781 -1.49089e-015 0 3.18055e-015 -122.722 -47.8401 -117.004 -62.7064 51.7714 -57.1957 3.68889 13.9815 -5.0139 23.1666 1.78799 4.73032 92.5333 -31.8996 82.7911 45.4696 54.239 60.93 -3.70213 19.5397 4.1208 12.0368 -38.0541 18.4337 26.4923 59.4819 -21.1067 -7.73307 -0.51799 -0.510018 -1.18446e-009 1.5602e-007 -4.87132e-009 
-181.565 96.9138 -506.952 -5.41215 -19.6861 12.9265 5.69982 -5.30354 4.62249 -8.77788 33.9811 -2.69453 -24.7515 -2.3787 -1.46657 0.0462048 0.000533403 0.662642 20.704 19.3264 -5.94306 0.0153071 0.0331591 -0.0958541 21.4442 38.3702 27.7669 2.38542e-015 7.95139e-016 -0 -126.977 -48.6125 -121.718 -63.1403 51.7665 -57.4376 0.16334 12.2389 -3.89839 22.0422 0.85974 7.02753 91.9489 -31.7604 81.9225 44.6483 53.7383 61.7332 -6.22629 26.0043 -12.2625 12.676 -38.5108 12.4633 32.6577 64.2322 -27.1379 -14.4492 0.133546 -0.955348 -1.18446e-009 1.5602e-007 -4.87131e-009 
-180.652 97.5133 -509.734 -5.54072 -18.8365 10.7414 3.4482 -7.93567 4.75258 -8.8968 34.7667 -0.0673458 -5.70711 -3.84431 -0.970122 0.0462048 0.000533403 0.662642 21.1979 21.9068 -8.90115 0.0132072 0.0261899 -0.0891533 15.8492 34.6949 33.6579 -1.19271e-015 0 -0 -132.241 -50.0959 -128.067 -63.6803 51.7645 -57.4808 3.5056 15.2408 -3.80314 21.0456 0.416821 10.3191 91.4016 -31.3134 81.3465 44.3075 53.4729 62.4694 -3.63877 20.6355 2.18233 13.3881 -37.9941 8.20835 30.9681 66.2992 -27.073 -20.0765 0.98676 -0.876978 -1.18446e-009 1.5602e-007 -4.87132e-009 
-179.788 97.9719 -512.465 -5.46731 -16.8871 6.95328 0.781085 -10.7773 5.35183 -8.94911 33.5895 3.32526 13.0811 -4.22838 0.31668 0.0462048 0.000533403 0.662642 19.9708 23.3704 -9.41157 -0.00849 -0.0129569 0.0271517 11.3101 29.8843 38.3321 -3.13086e-015 0 3.97569e-016 -136.572 -51.3883 -133.706 -64.2221 51.8643 -57.2956 1.72391 14.3788 -2.87659 20.8293 2.3037 3.15278 89.5892 -24.181 82.6871 47.1767 52.35 63.0712 -5.42237 24.3727 -7.78082 13.0486 -37.6361 5.50405 29.7403 67.6417 -29.0724 -9.47104 2.01131 0.0107947 -1.18446e-009 1.5602e-007 -4.87131e-009 
-178.884 98.4688 -515.156 -5.16911 -14.0428 1.82456 0.0289762 -14.5452 6.07037 -8.7817 31.4778 5.52072 8.89693 -4.90739 0.383679 0.0462048 0.000533403 0.662642 17.3399 23.6514 -7.81005 -0.00256997 -0.0126068 0.0280315 7.60915 24.1645 42.1919 1.2424e-015 -3.18055e-015 -0 -140.367 -52.7164 -138.966 -64.6616 51.942 -56.9619 4.02334 16.2929 -2.82116 20.2129 2.69192 6.75117 88.3767 -26.4485 82.3967 44.1381 52.5119 62.6244 -4.95637 18.1812 5.54373 12.9065 -36.2827 4.13782 22.2007 66.7377 -25.4204 1.55773 2.49343 0.101921 -1.18446e-009 1.5602e-007 -4.87131e-009 
-177.973 98.9021 -517.689 -4.58392 -10.4724 -4.42619 -1.10507 -19.0638 7.0033 -7.08552 29.0945 4.60948 13.6443 -4.78702 0.596414 0.0462048 0.000533403 0.662642 13.9925 22.8829 -4.27324 -0.00257157 -0.0110036 0.0238254 4.63862 17.4238 44.9688 9.93923e-016 4.77083e-015 -0 -143.694 -53.679 -143.604 -65.0549 52.0407 -56.4952 3.24929 15.913 -2.20468 19.5642 3.16098 9.28923 87.6556 -27.3383 82.3634 42.633 52.6062 62.4564 -6.72825 18.4824 1.70414 13.022 -34.235 3.85618 9.997 62.8788 -15.7987 14.0143 2.35939 -0.0589959 -1.18447e-009 1.5602e-007 -4.87131e-009 
-176.999 99.318 -520.053 -3.89237 -7.53268 -9.92387 -1.55039 -23.0669 6.25562 -5.05186 27.6837 1.94055 9.26713 -5.71907 0.605503 0.0462048 0.000533403 0.662642 11.1996 21.8226 -1.34366 -0.00257325 -0.00888437 0.0186344 2.73622 11.3739 47.091 -1.98785e-015 0 -0 -147.111 -54.5883 -148.235 -65.8296 51.8754 -56.0478 4.79693 17.0897 -2.07945 18.8957 3.70831 11.0729 87.2656 -27.5366 82.5215 42.1411 52.737 62.5827 -5.96242 16.2367 7.66365 12.2085 -30.8903 2.21001 0.656859 55.5488 -7.63665 26.9627 2.1046 -0.147974 -1.18446e-009 1.5602e-007 -4.87132e-009 
-175.98 99.5855 -522.224 -3.14271 -5.13333 -14.7353 -2.71638 -26.5635 3.80638 -3.08089 26.8957 -1.25106 11.2051 -5.59882 0.703075 0.0462048 0.000533403 0.662642 8.86848 20.5931 1.02385 -0.00257438 -0.00647029 0.0155742 1.54911 6.04094 48.8152 -3.97569e-016 -4.77083e-015 -0 -146.995 -52.2886 -147.727 -64.1471 54.0211 -54.8437 4.28992 16.8576 -1.40726 18.2209 4.29444 12.2948 87.1006 -27.3891 82.8368 42.2157 52.7953 62.7573 -6.82905 17.1873 3.9217 10.8988 -26.5629 -0.293657 -3.95362 45.7434 -2.81337 39.8075 2.03234 -0.217203 -1.18446e-009 1.5602e-007 -4.87132e-009 
-174.891 99.7789 -524.296 -2.38732 -3.21626 -18.9213 -3.76584 -29.8209 -0.0805681 -1.48402 26.4816 -2.35768 8.00026 -6.72751 0.643515 0.0462048 0.000533403 0.662642 6.92533 19.3141 2.88161 -0.00257506 -0.0039825 0.0155742 0.829741 1.41451 50.2823 1.98785e-015 -1.59028e-015 -0 -147.958 -51.2095 -148.662 -63.6337 54.9933 -54.029 5.02336 17.4464 -1.01541 17.568 4.897 13.0522 87.0727 -27.0572 83.2532 42.6402 52.8318 63.0264 -6.36893 16.4647 6.6547 9.40864 -21.1336 -3.11787 -4.86821 33.6331 -0.444823 52.3809 2.68144 -0.74866 -1.18445e-009 1.5602e-007 -4.87131e-009 
-173.826 99.7477 -526.172 -1.67271 -1.71813 -22.4858 -5.02192 -32.4317 -4.13766 -0.884931 28.8169 -1.23555 8.65694 -6.65737 0.747319 0.0462048 0.000533403 0.662642 5.32376 18.0689 4.24926 -0.0025757 -0.00164214 0.0155742 0.400069 -2.54009 51.5543 -2.38542e-015 4.77083e-015 -3.18055e-015 -149.331 -50.8158 -149.977 -63.8295 55.4314 -53.3326 4.52604 17.1335 -0.362641 17.0038 5.51244 13.5129 87.1027 -26.7072 83.7317 43.2172 52.7965 63.2429 -6.83118 17.2544 3.76907 8.1499 -15.399 -5.80009 -3.57984 20.3251 0.482995 64.6597 4.11876 -2.30308 -1.18446e-009 1.5602e-007 -4.87131e-009 
-172.889 100.857 -528.071 -1.01819 -0.592136 -25.3757 -5.66982 -32.0105 -7.97238 -0.868677 26.8985 0.733902 9.3961 -4.23901 0.532798 0.0462048 0.000533403 0.662642 4.01479 16.9194 5.1027 -0.0025757 -0.00164214 0.0155742 0.1265 -5.85752 52.6486 1.59028e-015 0 -3.18055e-015 -150.77 -50.8008 -151.096 -64.4561 55.6728 -52.6489 4.91219 17.2704 -0.0163797 16.581 6.16001 13.7485 87.1508 -26.4232 84.2147 43.8898 52.7391 63.4625 -6.67135 16.8861 5.05696 9.04882 -16.2217 -7.71787 -3.86677 22.2506 7.60364 38.9956 1.22265 0.722658 -1.18446e-009 1.5602e-007 -4.87132e-009 
-172.062 101.358 -529.757 -0.436495 0.190203 -27.5548 -6.25929 -32.9373 -11.7503 -1.55679 27.95 3.95409 10.4465 -2.97675 0.466563 0.0462048 0.000533403 0.662642 2.94724 15.906 5.45364 -0.0025757 -0.00164214 0.0155742 -0.0980244 -8.55169 53.5422 -1.59028e-015 -4.77083e-015 -0 -150.587 -49.9071 -146.807 -66.9325 55.2558 -50.2757 3.04794 21.6191 0.303506 16.3315 6.86674 13.883 87.2022 -26.3304 84.6376 44.5898 52.6671 63.62 -6.97338 17.2629 3.09104 9.75899 -15.1841 -8.64103 -3.67765 22.7557 14.0322 22.5787 -0.916714 0.702334 -1.18446e-009 1.5602e-007 -4.87132e-009 
-171.364 101.525 -531.251 0.069379 0.645133 -29.0251 -6.93401 -34.5657 -15.4703 -3.00624 30.3883 8.18594 11.7242 -2.24609 0.470413 0.0462048 0.000533403 0.662642 2.05292 15.0631 5.33721 -0.0025757 -0.00164214 0.0155742 -1.39039 -9.69983 54.0441 2.38542e-015 3.18055e-015 -3.18055e-015 -151.058 -49.7873 -144.445 -68.7396 54.9917 -48.8773 9.34059 6.45456 2.59496 16.2347 7.62851 13.9504 87.2805 -26.4436 84.9311 45.3122 52.6433 63.7709 -6.91662 16.9603 3.80085 10.4014 -13.7185 -8.72659 -3.92627 23.5967 20.4308 9.08174 -1.86382 0.15922 -1.18446e-009 1.5602e-007 -4.87131e-009 
-170.78 101.371 -532.617 0.486791 0.800423 -29.8746 -7.92217 -36.5797 -18.0835 -4.50504 33.7551 11.9017 13.243 -1.87094 0.520138 0.0462048 0.000533403 0.662642 1.27278 14.4029 4.8661 -0.0025757 -0.00164214 0.0155742 -3.54331 -9.3265 54.2752 -3.53113e-031 -3.18055e-015 -6.36111e-015 -151.721 -50.2977 -142.934 -70.108 54.9336 -48.0858 2.5772 23.001 1.40535 16.2385 8.42031 13.9725 87.4202 -26.7299 85.0602 46.034 52.6826 63.8855 -7.02928 17.136 2.61617 9.86985 -12.0795 -8.05987 -3.61875 22.9616 23.7282 11.516 -2.68532 0.541792 -1.18446e-009 1.5602e-007 -4.87132e-009 
-170.327 101.195 -533.919 0.814519 0.694713 -30.2044 -8.91921 -38.0912 -19.4927 -5.81879 36.6284 14.6894 15.0584 -1.33406 0.555563 0.0462048 0.000533403 0.662642 0.562777 13.915 4.151 -0.0025757 -0.00164214 0.0155742 -6.35924 -7.46654 54.4457 7.95139e-016 3.18055e-015 6.36111e-015 -152.386 -51.3675 -141.838 -71.0583 54.8729 -47.8302 6.67155 13.6065 2.55422 16.2898 9.21088 13.9158 87.6402 -27.1004 85.024 46.7677 52.8035 63.9939 -6.90568 16.9676 3.08738 10.9904 -10.9106 -6.64429 -2.94315 23.0342 24.8575 -9.79274 -2.93277 -0.632364 -1.18446e-009 1.5602e-007 -4.87131e-009 
-169.984 100.86 -535.182 1.06273 0.376953 -30.1188 -9.89646 -39.2235 -19.7271 -6.85989 39.4159 16.3323 17.1381 -0.946019 0.599379 0.0462048 0.000533403 0.662642 -0.106514 13.5851 3.29037 -0.0025757 -0.00164214 0.0155742 -8.90267 -5.56418 54.6102 7.95139e-016 -1.59028e-015 -3.18055e-015 -152.931 -52.9219 -140.823 -71.8354 54.9973 -47.8652 2.61548 22.7725 2.26118 16.3495 9.9616 13.7705 87.9416 -27.4711 84.8571 47.5085 52.9784 64.0675 -6.86564 17.1132 2.42254 10.2021 -10.5581 -4.43848 -1.979 23.2158 23.9618 -3.00273 -3.95149 -0.275232 -1.18446e-009 1.5602e-007 -4.87132e-009 
-169.731 100.451 -536.445 1.24638 -0.0966671 -29.7173 -10.7188 -39.7409 -18.761 -7.3447 41.7351 16.526 19.4779 -0.63104 0.638959 0.0462048 0.000533403 0.662642 -0.733087 13.393 2.36195 -0.0025757 -0.00164214 0.0155742 -11.1796 -3.62931 54.7854 -7.95139e-016 0 -3.18055e-015 -151.707 -58.0437 -135.94 -68.2915 56.4171 -54.8472 5.08433 17.2512 2.77085 16.4133 10.6502 13.5256 88.2791 -27.7781 84.5841 48.2528 53.2083 64.1419 -6.70725 17.0814 2.76992 10.3036 -10.451 -1.52554 -0.954514 23.7922 21.2195 -6.87835 -4.11101 -0.493221 -1.18447e-009 1.5602e-007 -4.87131e-009 
-169.535 100.126 -537.712 1.36671 -0.620207 -29.1351 -10.2009 -40.043 -16.5055 -10.2294 47.8423 17.5887 5.55462 -0.526396 -0.601076 0.0462048 0.000533403 0.662642 -1.29432 13.2904 1.4751 -0.0025757 -0.00164214 0.0155742 -13.1809 -1.69908 54.9827 -1.59028e-015 3.18055e-015 -0 -150.085 -61.975 -132.192 -65.9897 56.8222 -59.3306 2.55327 22.5394 2.5852 16.4124 11.2311 13.2222 88.7027 -27.9751 84.2833 49.005 53.4429 64.178 -6.61356 17.2411 2.43351 10.6136 -10.7815 2.08389 0.275577 24.4183 17.2978 -10.5861 -4.13886 -0.711925 -1.18446e-009 1.5602e-007 -4.87132e-009 
-169.462 99.6492 -539.068 1.4285 -1.10221 -28.4872 -11.1712 -38.8707 -14.1052 -15.2002 55.072 19.8853 7.77323 0.328615 0.273472 0.0462048 0.000533403 0.662642 -1.76927 13.2414 0.715724 -0.0025757 -0.00164214 0.0155742 -14.9031 0.173659 55.1996 -8.82781e-032 1.59028e-015 3.18055e-015 -148.458 -65.1218 -129.396 -64.7145 56.716 -62.0098 3.98576 19.4115 2.6473 16.3665 11.6833 12.9042 89.1817 -28.0536 83.999 49.7592 53.677 64.1854 -6.46114 17.2927 2.70868 11.4014 -12.2875 6.30314 1.73304 26.5584 12.3612 -14.4733 -4.54663 -1.02227 -1.18446e-009 1.5602e-007 -4.87131e-009 
